<svg xmlns="http://www.w3.org/2000/svg" viewBox="0 0 1024 1024"><path d="M484 258c4.44 5.27 6.02 11.65-.42 16.03-9.54-4.03-16.99-11.92-25.66-17.45-44.5-28.36-64.85-5.23-55.45 42.45 2.32 11.79 11.61 29.05 9.3 40.24-.78 3.77-8.63 13.4-12.65 10.61-1.22-.85-2.33-10.63-2.28-12.72-10.06-3.32-18.93-12.83-19.86-23.67-.15-1.75 2.58-4.97-.47-4.48-49.86 36.44-87.63 88.22-109.7 145.8l-23.8 5.19c22.22-76.14 73.65-142.96 141.07-184.42 1.68-14.12 3.72-28.93 15.59-38.41 20.17-16.09 47.81-5.66 67.06 6.68 21.24-2.25 42.74-.46 63.81 2.67 11.72-5.12 20.59-17.91 34.06-19.41 25.54-2.85 24.12 26.58 23.9 43.88 15.19 11.3 45.14 28.33 50.97 47.03 2.73 8.76 1.81 15.29 7.11 23.89 10.77 17.5 41.44 40.09 43.4 60.59-1.3 25-.29 53.87-22.07 70.9-2.97 2.32-12.41 6.48-13.67 7.82-.82.88-3.14 9.61-4.37 12.14-10.23 21.06-31.52 29.43-54.12 26.37-20.39-2.76-51.29-44.93-65.24-7.72-8.62 23-2.57 44.59 14.08 61.88 15.4 15.98 34.34 31.09 50.42 47.58 16.44 16.85 46.79 56.97 70.6 59.4 11.79 1.21 26.26-1.78 38.92-.92 18.66 1.27 38.71 9.89 49.4 25.56-22.92 14.24-51.56 24.43-78.94 20.49l26.98 36.49c-33.66 15.04-70.82-3.96-93-29.98-2.82-3.31-9.13-14.47-11.03-15.97-2.61-2.05-15.11-5.35-18.91-6.09-46.02-9.02-92.44 12.97-138.39 1.46-9.42 36.43-49.88 15.74-69.55.47-5.87-4.56-12.33-12.47-18.42-15.58-8.33-4.25-20.52-7.56-29.65-11.35-4.44-1.85-11.81-6.34-15.55-7.45-1.4-.42-1.78.09-1.47 1.47 6.32 15.04 20.1 40.63 16.96 56.99-1.58 8.22-17.33 2.49-22.33.38-31.49-13.23-49.45-47.3-48.81-80.7-6.78-3.32-12.69-4.76-20.32-4.14-16.24 1.31-26.99 4.75-43.21-2.83-6.9-3.22-9.74-8.99-14.38-11.62-9.43-5.33-15.27-3.65-23.91-14.09-20.54-24.85-7.94-54.13 8.16-76.79 19.92-28.04 42.37-50.51 75.3-62.7 86.24-31.93 173.37 17.4 250.52 51.01-36.6-32.78-89.08-59.48-97.71-112.78-1.87-11.56-2.15-25.91-.02-37.44 1.95-10.57 3.41-13.3 14.72-14.77-2.51 19.82-.19 39.52 11.2 56.31 26.8 39.5 73.4 24.79 113.34 37.66 25.38 8.17 35.9 22.05 56.55 34.45 17.15 10.3 40.17 9.82 52.75-7.09 1.97-2.65 9.92-16.51 4.53-18.25-6.08.54-11.38 3.9-17.52 5.26-19.93 4.41-43.64-.09-62.61-7.07-7.05-2.6-27.7-10.01-15.96-19.61 11.45-9.36 33.03-5.35 46.62-3.56l.11 5.9c-8.6.09-16.89-1.35-25.51-1-1.21.05-3.72-.75-3.48.99 9.26 1.66 15.8 7.28 25.23 10.27 16.83 5.34 29.81 7.22 46.43-.09 12.98-5.71 20.58-13.46 19.38-28.72-1.22-15.48-18.74-13.82-21.52-20.47-1.15-2.75-.77-9.54 1.03-11.92 2.49-3.3 15.63-.43 20.12-.44 5.22 0 17.48.16 21.83-.63.89-.16 2.34-.69 2.51-1.52.32-1.6-7.44-11.93-9.03-13.95-10.13-12.9-35.79-34.3-40.27-48.73-4.12-13.25.15-16.88-11.69-28.31-20.22-19.52-71.24-51.49-99.51-51.49H484Zm171.01 206c11.81-2.78 22.52-22.69 22.79-33.79.21-8.54-6.25.8-7.77 2.32-7.25 7.24-11.89 16.16-14.53 26.47-.43 1.7-.71 3.25-.49 5.01ZM645 691.99c-8.34-6.16-17.19-11.58-25.01-18.48-24.08-21.23-44.5-47.46-68.97-69.03-42.92-37.84-91.7-63.77-144.34-85.66-89-37.01-184.16-48.89-243.09 43.26-11.37 17.78-19.75 46.69 3.53 59.3 9.16 4.96 6.73 1.57 12.64-1.12 10.28-4.67 21.26 4.14 31 5.48 11.42 1.57 31.81-2.76 38.7-12.78 1.25-1.82.84-4.51 2.52-4.96 1.98 7.12 3.04 11.42-.11 18.37-.99 2.18-2.94 3.58-3.37 5.63 16.2-4.42 30.47-12.87 40.31-26.69 3.83-5.39 6.04-11.37 10.17-16.32 3.32 18.85-1.39 39.47-13.99 53.99 22.46-2.27 34.9-17.7 39.52-38.93.19-.89-.11-1.95 1.47-2.06 3.97 41.02 27.24 78.33 61.28 101.23 8.45 5.68 37.54 23.02 37.72 2.27.06-6.94-4.3-27.35-6.29-34.7-8.43-31.16-33.41-51.14-61.7-63.81-2.09-2.16 5.58-2.92 6.51-2.97 21.92-1.15 32.79 12.34 48.57 23.4 36.87 25.84 91.12 25.95 134.12 36.88 27.67 7.03 56.06 23.24 83.42 26.58 5.03.61 10.34.14 15.37 1.12Zm-422-53.98-36.99-7c-.58 2.56.71 1.75 1.88 2.58 7.65 5.46 20.37 7.19 29.6 6.4 1.22-.1 5.35-.37 5.51-1.98Z"/><path d="M555 561.01c31.08-3.69 60.85-14.12 90.78-22.73 8.78-2.52 19.87-3.93 28.01-6.99 13.94-5.24 16.77-14.98 35.7-13.28 4.37.39 10.14 3.63 13.96 3 2.83-.47 6.95-6.41 13.03-7.05 12.03-1.25 23.26 10.45 34.5 13.55 13.93 3.84 61.72 5.86 74.06.02 11.42-5.41 14.48-9.97 29.18-8.26 18.62 2.17 31.51 19.78 23.29 37.73-1.34 2.94-4.07 4.19-4.96 6.04-1.1 2.27-1.03 6.11-2.07 8.93-3.3 9.01-14.26 16.41-22.6 20.4-25.06 11.99-58.45 20.18-85.13 29.87-48.55 17.64-100.93 51.41-150.48 16.98-17.03-11.83-30.01-30.79-44.25-45.75-10.64-11.18-22.12-21.58-33.03-32.46Zm324.99-24c-6.15-2.66-11.29-4.12-17.99-2 1.93 2.5 6.6 3.38 9.53 4.04l8.45-2.04Zm-170.03 4.02c-1.01-.88-9.34 1.65-9.91 3.59.26 4.65 6.38 7.73 10.53 8.28 14.47 1.93 25.34-7.26 5.42-10.9 3.2 11.2-6.25 7.49-6.04-.97ZM871.5 565c-6.07.83-15.47 0-22 0-3.87 0-14.57 5.68-18.96 7.04-16.16 5-29.99 2.8-45.92 5.08-14.09 2.02-27.91 9.68-42.13 10.87-25.44 2.12-53.1-14.42-79.46-1.46L651.01 593c19.15-5.98 35.26-7.54 55.03-3.53 3.74.76 28.75 7.06 29.94 8.06 1.67 1.4 1.84 5.5 4.51 5.49 3.33-9.07 13.49-8.19 21.77-11.25 7.04-2.6 17.58-12.42 16.75 2.24 5.38-.8 7.89-11.16 12.54-10.99 3.49.13 2.07 6.56 4.95 7.97l8.04-8.95 5.98 7.97c7.88-5.12 7.82-17.08 16.99-4.02 3.05-1.83 2.89-7.93 6.21-8.85 3.63-1 6.48 3.34 10.28 2.87-1.02-10.76 7.22-12.47 11.02-3.01l1.98-.64c2.91-16.29 18.42 7.57 15.99-12.35-.36-.51-1.21.96-1.49 1ZM643.99 785c1.49 1.45-2.8 3.31-3.68 3.79-11.75 6.36-22.45 3.89-34.37 6.66s-20.29 9.24-33.58 10.42c-17.49 1.56-33.97-6.25-50.86-4.86-13.08 1.08-26.38 8.8-39.48 11.52-28.54 5.92-56.02 1.1-83.03-8.55.46-1.49 5.17-1.87 6.51-1.98 16.94-1.28 30.13.03 47.67-3.33 29.61-5.66 56.32-22.48 87.06-17.43 12.44 2.05 19.33 5.99 33.29 4.78 13.83-1.2 19.9-10.38 36-9.07 11.82.96 22.75 9.85 34.45 8.04ZM654.76 148.26c45.63-6.25 59.94 56.69 18.26 68.26-49.51 13.74-65.63-61.77-18.26-68.26Zm3.98 14.98c-22.07 3.54-21.16 41.12 3.73 39.8 25.47-1.35 24.7-44.36-3.73-39.8ZM458 776.01c-3.09 3.13-10.99 4.64-15.46 5.03-18.24 1.58-33.26-6.14-50.04-6.13-12.23.01-24.41 6.31-36.99 5.08-9.88-.96-22.97-7.61-29.51-14.98 23.51 4.92 45.46-10.95 68.49-10s41.36 17.3 63.51 21ZM449.99 274.99l-14-2 .13 4.87c8.94 2.22 20.83 6.57 23.86 16.13-17.42 1.03-23.88 11.49-26.04 27.48-.19 1.43.93 2.95-1.44 2.52-15.34-12.1-26.26-47.64-15.35-64.33 10.88-16.64 34.6 13.63 32.83 15.33ZM585.5 750c.25 0 1.33-1.9 1.51-.49v1.47c-9.46 6.04-20.12 10.29-31.55 10.07-8-.16-16.94-2.66-24.91-3.09-22.25-1.21-44.73 6.44-65.81-2.2l-8.73-4.75c26.55-.34 46.92-12.29 74.37-9.88 10.9.96 29.08 8.87 37.13 8.87 5.98 0 12.03.21 18 0ZM602.99 375.99c-10.71.99-16.84-10.46-26.94-12.55-8.11-1.69-17.21-.06-24.96-4.04-6.44-3.3-9.84-10.33-14.56-15.44-1.21-2.01-13.3-7.76-12.53-9.44.62-1.36 2.16-1.42 3.44-1.56 8.1-.89 33-1.46 40.8.31 15.83 3.59 16.84 12.16 23.95 24.04 1.44 2.4 11.97 17.57 10.79 18.7Zm-46.73-26.24c-2.69-2.84-.28-9.18-.7-9.77-18.12-5.52-7.59 19.59 5.49 16.61 5.02-1.14 11.34-8.89 5.95-12.59 1.18 6.69-6.26 10.49-10.75 5.74ZM173.01 713.99l34.96-9.53c2.38 1.98 5.75 6.66 4.89 9.81L192.02 742c6.12-1.33 26.85-12.45 31.45-12.03 3.66.33 5.09 8.65 7.53 11.47l-50.58 17.58c-4.01.26-5.04-7.12-8.98-9.02l19.57-28-32.35 8.08-6.57-11.44 36.32-41.6 8.36 10.47c-5.28 6.24-11.86 11.37-17.27 17.47-.83.93-7.2 8.37-6.48 9.01ZM267 844.98l27.02-48.99c14.17 9.38 35.33 16.13 35.06 36.52-.17 13.34-9.94 26.01-23.57 27.49-16.23 1.76-24.99-8.95-38.51-15.02Zm18-3c8.93 3.79 19.91 8.01 26.45-2.03 7.16-11-.03-21.93-11.44-24.95L285 841.98ZM811 713l-.46 11.03c-12.71 4.7-22.37 20.29-9.77 30.98 10.61 9 24.84 1.22 27.04-11.39-5.88-7.78-7.51-.19-11.34 4.38l-7.42-5.49 13.58-20.43c3.56 2.49 18.18 10.36 19.16 13.62 1.17 3.92-.89 12.3-2.31 16.28-7.17 20.04-31.86 27.67-48.49 13.53-21.86-18.59-6.52-51.04 20.01-52.51ZM624.01 877.02v1.96L643 893.99l-15.52 4.67c-6.99-4.59-11.85-16.78-21.45-13.63l3.97 17.96-14.94 1.94-13.07-52.91c13.12-2.21 32.26-13.61 43.54-2.05 6.77 6.94 8.59 22.63-1.53 27.05Zm-21.94-3.06c5.97-.96 15.98-2.24 14.91-10.37-1.3-9.89-12.84-3.84-18.98-3.58l4.07 13.95ZM737.65 777.58c.64-.56-.16-1.96 1.34-1.57 1.94 4.23 5.12 7.92 8.04 11.47 3.44 4.19 12.15 15.57 16.01 17.98 6.81 4.26 15.76.5 16.53-7.42.83-8.55-19.99-26.75-25.5-33.68L764.98 753c9.63 15.78 37.92 33.14 25.23 54.71-4.96 8.43-15.83 14.18-25.6 13.18-15.77-1.62-26.62-24.55-37.59-34.39 0-.71 9.1-7.57 10.63-8.92ZM680 830.98l-24 10.03 4.46 8.75 21.52-8.76 4.02 10.98-20.58 9.01 2.63 8.99 24.42-10.01 4.3 10.57-37.16 16.33-20.59-51.82L673.55 820c2.38-.14 6.84 10.47 6.46 10.99ZM511.5 903c2.71.84 1.08 10.41 1.5 13l-41.01-1 1-56.01 40.01 1 .99 12h-27c.37 3.29-1.24 7.62 1.5 10h21.5v11h-23v10h24.5ZM834.93 667.08l-9.91 21.42 9.97 4.5 8.02-20 10.99 4.01-8.87 20.51 9.38 5.47 10.5-22.99 10.92 5.6-16.05 34.28-51.78-23.36L824.01 662l10.92 5.08zM705 816.02l6.63 9.85 18.81-10.93 6.46 9.57-18.89 12.99 10.98 16.49-12.5 7.01-30.3-46.51 32.33-21.43 7.44 9.54c.39 1.41-.9 1.6-1.6 2.26-4.18 3.94-14.17 7.9-19.35 11.17ZM459.99 858.01l-1.04 12.96-25.94-3.97-1.01 11 22 3.01-2.14 11.85L429 890l-2.01 19-13.88-3.1 7.94-52.84 38.94 4.95zM259.64 768.07c.74-.13 11.15 8.1 10.25 10.23l-25.79 31.2 17.82 15.12-7.42 10.36-29.46-25.48 34.59-41.43ZM362 832.01l-16 40.98 23.01 9.03-4.62 11.05-36.43-14.64 20.13-50.34 13.91 3.92zM239.5 747.02c1.53 2.37 11.4 9.38 10.06 11.97l-37.57 35.57-1.96-.02-10.01-9.05 39.48-38.48ZM394.01 844l13.93 5.57-15.43 52.4-13.32-5.43L394.01 844zM335.72 363.2c9.72-2.22 9.04 9.28 7.83 15.85-1.43 7.72-14.52 28.4-22.58 18.48-7.07-8.7 4.07-31.89 14.75-34.33ZM310.73 412.23c14.07-2.95 9.85 17.7 5.11 25.11-1.86 2.91-7.18 7.78-10.58 8.45-17.97 3.52-7.85-30.77 5.47-33.56ZM360.73 392.18c15.67-3.29 6.03 40.36-8.8 30.39-9.47-6.37.1-28.56 8.8-30.39ZM366.74 337.21c16.95-1.66 4.15 33.81-10.02 29.59-10.64-3.17-.53-28.55 10.02-29.59ZM442.73 414.23c6.71-1.39 18.45 1.17 19.26 9.36 1.63 16.54-33.48 10.99-26.73-3.8 1.14-2.49 4.84-5.01 7.47-5.56ZM453.75 373.19c11.59-1.03 9.85 19.66.16 25.22-15.03 8.63-15.38-23.87-.16-25.22ZM441.75 337.19c1.2-.24 2.34-.44 3.54-.04 9.39 7.39-3.76 29.92-14.58 26.69-8.69-2.6 1.39-24.75 11.04-26.65ZM486.77 356.18c9.95-1.28 15.12 17.52 2.2 22.29-18.76 6.92-16.01-20.51-2.2-22.29ZM483.73 392.23c16.59-3.33 21.4 17.39 4.69 19.67-17.87 2.44-14.75-17.65-4.69-19.67ZM587.5 433c2.88.81 3.07 5.97.51 7.51-4.31 2.59-28.65-2.2-35.46-2.55-8.26-.42-17.43-.21-25.54 1.03.19-1.56 3.67-2.14 4.98-2.51 2.82-.79 13.38-3.48 15.51-3.48h40ZM519.73 294.24c17.73-3.25 17.35 16.34 1.76 17.77-17 1.55-11.88-15.91-1.76-17.77ZM366.75 458.74c-2.06 1.98-8.69 1.24-11.03.03-5.76-2.98-2.18-20.65 8.32-17.34 7.23 2.28 7.26 12.92 2.71 17.31ZM512.71 374.21c11.8-3.55 14.24 15.8 4.34 17.37-11.17 1.78-11.59-15.2-4.34-17.37ZM524.67 406.32c12.91-.22 12.27 19.17-4.51 14.01-9.64-2.96-4.77-13.86 4.51-14.01ZM422.66 380.21c8.78-.78 7.88 16.7.89 20.84-10.77 6.38-8.61-20.15-.89-20.84ZM465.75 306.17c8.16-1.35 8.25 13.98-1.02 17.06-14.5 4.82-9.22-15.37 1.02-17.06ZM552.71 302.21c15.77-3.55 11.65 16.6-1.16 15.76-8.75-.57-6.65-14.01 1.16-15.76ZM490.76 290.18c12.29-1.5 9.34 14.24-1.34 15.77-12.65 1.8-7.87-14.64 1.34-15.77ZM538.71 273.21c13.29-3.98 17.99 14.92 2.78 14.83-8.99-.05-9.52-12.81-2.78-14.83ZM507.72 267.15c12.07-3.25 12.6 19.2.01 16.67-8.08-1.62-6.64-14.89-.01-16.67ZM494.71 439.7c-6.16 4.97-23.62-1.8-11.21-10.7 9.98-7.16 18.22 5.04 11.21 10.7ZM495.73 320.2c14.96-3.26 10.52 22.18-2.64 14.21-5.72-3.46-3.39-12.9 2.64-14.21ZM469.68 337.25c8.96-.41 9.09 18.1-3.14 15.74-9.31-1.8-4.08-15.41 3.14-15.74ZM545.76 397.76c-1.18 1.18-4.5 1.42-6.17 1.22-8.93-1.1-6.89-17.65 2.7-14.78 4.42 1.32 6.47 10.57 3.48 13.56ZM568.72 406.72c-2.36 2.34-7.72 3.21-9.62-.4.18-4.9 2.45-15.15 9.18-13.15 4.43 1.31 3.01 10.98.43 13.55ZM510.71 345.2c12.51-3.8 9.06 17.78-.69 13.29-5.83-2.69-5.05-11.54.69-13.29ZM569.68 288.25c2.37-.1 7.11 3.96 7.35 6.28-5.91 18.22-22.72-5.6-7.35-6.28ZM588 417.01c-1.7 11.09-16.98 6.59-24.99 5.98l19.73-5.75 5.26-.23ZM586.99 332c-4.23-2.21-5.21-7.18-7.55-10.94-2.37-3.8-7.3-3.95-.8-8.92 6.28-1.21 8.03 15.55 8.36 19.86ZM532.47 360.34c5.65-.62 10.75 10.52 3.64 12.17-7.19 1.67-10.33-11.44-3.64-12.17ZM613.95 330.96c-8.49-.32-8.91-7.37-2.47-11.71 5.81 1.99 4.23 7.17 2.47 11.71ZM556.49 374.29c5.41 1.3 8.37 6.34 3.89 10.63-4.58 1.58-10.86-8.24-3.89-10.63ZM594.62 304.07c5.66-1.92 8.22 6.61 2.75 9.87-5.65.78-6.67-8.54-2.75-9.87ZM602.84 435.15l1.13 3.4-.93 1.96c-4.9 3.66-12.08 1.9-7.63-4.61l7.43-.75ZM578 399.99c-.99-3.43 6.07-9.57 8.56-6.05 3.04 4.3-4.79 8.35-8.56 6.05ZM617 435c-.03 1.85.52 3.99-.98 5.52-6.5 6.62-12.79-8.09.98-5.52ZM601.71 447.16l2.27 1.4c-5.04 16.76-12.11-.99-2.27-1.4ZM618 448.01c-.81 8.61-10.59 11.29-6.51.97l6.51-.97ZM592.01 424.99c-1.2-1.07 6.81-8.67 8.53-6.03 2.44 7.37-3.26 6.17-8.53 6.03ZM631 446.01l-3.01 4.55-4.99-.58c-.47-4.93 4.33-5.53 7.99-3.97ZM623.7 434.11c2.14-.7 5.92 2.72 3.33 4.42l-6.03-1.05 2.7-3.37ZM517.76 115.26c52.84-7.25 59.03 64.04 12.64 68.63-47.52 4.7-55.95-62.69-12.64-68.63Zm1.97 14.97c-13.32 2.7-17.41 20.1-10.16 30.71 12.45 18.21 40.64 4.18 34.15-18.15-3.18-10.95-13.27-14.73-23.99-12.56ZM165.01 385c6.63-6.95 16.07-8.23 23.9-2.41 16.13 11.99-.44 37-1.91 52.41l-64-16.01c3.65-11.15 5.68-35.02 15.5-42 8.95-6.36 23.51-2.89 26.52 8Zm-10.25 7.24c-2.12-2.11-8.11-1.59-10.22.8-2.58 2.92-3.06 11.13-4.54 14.96l12.04 2.6c1.59-3.81 5.8-15.29 2.72-18.36ZM178 417.01c-.47-6.22 7.27-16.06.98-20.48-10.12-7.1-12.21 10.41-14.05 16.86l13.07 3.62ZM883.65 385.35c35.22 35.18-22.8 84.77-52.06 46.56-26.62-34.76 20.64-77.94 52.06-46.56Zm-29.92 5.88c-8.47 1.72-15.34 11.59-14.64 20.14 1.73 21.13 31.45 23.28 38.39 4.6 6.02-16.2-7.88-27.97-23.75-24.75ZM733.01 238c.22 6.48-.3 13.05-.05 19.54.11 2.7 1.16 5.1 1.08 7.93-.04 1.51.66 2.94-1.52 2.52l-14.36-9.65 1.43-26.89c-.14-1-1.78-2.33-2.66-2.89-.77-.49-1.74-1.35-2.61-1.43-2.52-.24-11.19 14.41-13.82 16.85l-12.32-9.47 39.4-54.49c1.7-.4 25.79 18.22 27.95 20.96 13.61 17.31-.71 42.56-22.52 37.03Zm-.53-36.81c-1.77 2.43-11.1 11.93-10.42 14.18.17.55 8.12 6.28 9.24 6.83 5 2.45 9.5 2.52 12.56-2.82 5.3-9.25-5.27-13.27-11.38-18.18ZM246 271.99c8.44.28 17.09.39 25.51 1.01 1.49.11 2.89-.78 2.48 1.49l-12.67 14.39c-3.82 1.28-18.17-4.35-22.81-3.88-2.15.22-3.55 2.73-5.07 4.01-1.01 1.43.17 2.08 1 3.04 1.69 1.93 14.51 10.52 14.54 11.45l-10.59 12.46-51.38-41.46L208.5 249c17.25-15.57 44.04.92 37.5 22.99Zm-17.29-11.68c-8.09-6.37-14.96 5.6-19.64 10.33l12.46 12.35 5.45-5.5c4.94-5.07 8.65-11.72 1.73-17.17ZM297 226.99l25.99 7.51-14.54 11.5c-9.66-.89-20.42-12.2-28.43-2.49L294 260l-14.4 8.94-40.6-51.91c15.83-8.52 26.59-30.2 47.37-20.89 11.43 5.12 17.77 19.65 10.63 30.86Zm-37-8.97 11.49 14.88c6.36-5.06 18.78-11.13 10.56-20.46-8.06-9.14-14.39 2.54-22.06 5.57ZM844.99 297c6.65 15.51 18.35 27.15 15.93 45.41-2.31 17.44-25.79 31.31-42.47 26.64-14.47-4.05-25.43-27.74-31.37-40.45l57.91-31.6Zm-5.47 20.11-33.09 17.9c10.72 37.25 55.2 12.44 33.09-17.9ZM389 201.99l-13.32 6.86c-3.7-1.12-7.58-8.18-10.94-7.7-1.12.16-19.07 8.69-20.48 9.63-4.74 3.15-1.19 6.86-1.2 10.79-.01 4.34-10.51 8.04-14.05 10.44l-5.85-71.85 14.81-6.71L389 201.99Zm-33-11L339.01 176l1 21 15.99-6.01ZM231.98 322.03l-5.03 14.94-14.96-1.5-10.54 22.5 8.45 8.67-6.91 14.36-47.97-50.47 7.6-17.61 69.36 9.11ZM198 333.01l-25-3 17.5 16.97 7.5-13.97ZM746.16 282.85 738 270.01l63.7-23.82 11.03 11.3-31.25 63.52-11.33-10.65 5.83-11.88-17.68-19.32-12.14 3.7ZM793.99 264c-7.22 2.47-14.5 5.11-21.62 7.9-1.03.4-1.71-.54-1.37 1.58l12.98 12.51L793.99 264Z"/><path d="M483 168.02c-12.8 26.62-53.09 27.05-64.77-.75-14.58-34.71 30.68-65.66 56.75-37.78l-9.62 9.4c-18.88-15.53-43.61 7.33-29.35 26.59 9.42 12.73 26.12 8.09 33.47-4.26l13.52 6.79ZM588.02 176.95l27.05 7.64-2.08 13.41-44-10.01 16.01-66c3.07 1.33 14.77 3.2 15.03 6.49l-12.01 48.47ZM237.71 530.21c4.88-1.1 12.45.05 14.08 5.49 4.71 15.75-22.78 8.95-20.39.27.6-2.19 4.05-5.25 6.31-5.76ZM184.5 577.44c9.24 0 7.53 13.45-2.8 10.35-4.6-1.38-3.82-10.35 2.8-10.35ZM237.99 577.99 218 555.01c10.35 2.73 18.26 12.57 19.99 22.98ZM167.9 587.9c-1.96 2.83-9.62-.69-7.44-4.89 2.54-4.9 9.59 1.79 7.44 4.89Z"/></svg>